PathFileType	4	(X/Y/Z)	 control3min.trc
DataRate	CameraRate	NumFrames	NumMarkers	Units	OrigDataRate	OrigDataStartFrame	OrigNumFrames
200	200	9	35	m	200	251	1000
Frame#	Time	C7			LSH			RSH			MAN			RASI			LASI			HIPR			HIPL			RPSI			LPSI			COX			RTHI1			RTHI2			RTHI3			RTHI4			RSHA1			RSHA2			RSHA3			RSHA4			RHEEL			RMET5			RMET1			RTOE			LTHI1			LTHI2			LTHI3			LTHI4			LSHA1			LSHA2			LSHA3			LSHA4			LHEEL			LMET5			LMET1			LTOE			
		X1	Y1	Z1	X2	Y2	Z2	X3	Y3	Z3	X4	Y4	Z4	X5	Y5	Z5	X6	Y6	Z6	X7	Y7	Z7	X8	Y8	Z8	X9	Y9	Z9	X10	Y10	Z10	X11	Y11	Z11	X12	Y12	Z12	X13	Y13	Z13	X14	Y14	Z14	X15	Y15	Z15	X16	Y16	Z16	X17	Y17	Z17	X18	Y18	Z18	X19	Y19	Z19	X20	Y20	Z20	X21	Y21	Z21	X22	Y22	Z22	X23	Y23	Z23	X24	Y24	Z24	X25	Y25	Z25	X26	Y26	Z26	X27	Y27	Z27	X28	Y28	Z28	X29	Y29	Z29	X30	Y30	Z30	X31	Y31	Z31	X32	Y32	Z32	X33	Y33	Z33	X34	Y34	Z34	X35	Y35	Z35	
251	1.2550	-0.256234	1.540154	-0.532079	-0.196128	1.514746	-0.761126	-0.193601	1.517897	-0.325352	-0.104776	1.473824	-0.536359	-0.137853	1.021732	-0.419141	-0.123634	1.015910	-0.637119	-0.195267	1.073923	-0.372543	-0.186520	1.069264	-0.699386	-0.318860	1.060049	-0.482205	-0.319137	1.054431	-0.594357	-0.325232	1.067831	-0.534443	-0.193648	0.774997	-0.331309	-0.166278	0.725036	-0.313212	-0.109182	0.755724	-0.306780	-0.130027	0.810713	-0.325261	-0.231943	0.364474	-0.308948	-0.242471	0.324961	-0.323722	-0.183613	0.313538	-0.314104	-0.176872	0.351746	-0.304365	-0.386461	0.067526	-0.417476	-0.222860	0.026372	-0.308313	-0.164627	0.041905	-0.389562	-0.134806	0.030593	-0.382615	-0.141191	0.777388	-0.750282	-0.113775	0.721630	-0.759018	-0.054588	0.742450	-0.744014	-0.072939	0.799183	-0.733768	-0.169159	0.351052	-0.762151	-0.193599	0.318890	-0.760376	-0.141170	0.288243	-0.743679	-0.122381	0.328159	-0.748236	-0.371756	0.064701	-0.686001	-0.197156	0.025405	-0.773530	-0.142179	0.038002	-0.687454	-0.113371	0.028563	-0.694038	
252	1.2600	-0.256284	1.541053	-0.531863	-0.195659	1.515869	-0.760927	-0.193665	1.518695	-0.325074	-0.104754	1.474662	-0.536017	-0.137416	1.022614	-0.419163	-0.123372	1.016733	-0.637112	-0.194953	1.074615	-0.372375	-0.186449	1.069869	-0.699309	-0.318526	1.060899	-0.481924	-0.318880	1.055295	-0.594131	-0.324934	1.068659	-0.534209	-0.194015	0.775783	-0.331446	-0.166907	0.725697	-0.313382	-0.109679	0.756087	-0.306739	-0.130256	0.811224	-0.325201	-0.232798	0.364172	-0.309028	-0.243236	0.324705	-0.323878	-0.184294	0.313434	-0.314355	-0.177838	0.351696	-0.304198	-0.386643	0.067083	-0.417558	-0.222926	0.026383	-0.308309	-0.164715	0.041906	-0.389572	-0.134879	0.030585	-0.382606	-0.141706	0.777975	-0.750208	-0.114521	0.722133	-0.759019	-0.055216	0.742810	-0.744312	-0.073385	0.799578	-0.734023	-0.169786	0.350907	-0.762163	-0.194126	0.318674	-0.760333	-0.141612	0.288229	-0.743528	-0.122948	0.328177	-0.748172	-0.371813	0.064550	-0.685896	-0.197188	0.025410	-0.773515	-0.142190	0.038001	-0.687452	-0.113377	0.028558	-0.694053	
253	1.2650	-0.256333	1.542456	-0.531657	-0.195294	1.517533	-0.760728	-0.193789	1.520032	-0.324804	-0.104732	1.476100	-0.535690	-0.136863	1.023978	-0.419203	-0.122994	1.018080	-0.637057	-0.194303	1.075805	-0.372277	-0.186186	1.071087	-0.699140	-0.318058	1.062265	-0.481587	-0.318504	1.056667	-0.593861	-0.324506	1.069988	-0.533946	-0.194542	0.777008	-0.331661	-0.167771	0.726749	-0.313649	-0.110352	0.756755	-0.306648	-0.130612	0.812093	-0.325114	-0.234136	0.364023	-0.309358	-0.244401	0.324603	-0.324293	-0.185351	0.313598	-0.314626	-0.179212	0.351879	-0.304179	-0.386806	0.066707	-0.417697	-0.223000	0.026395	-0.308323	-0.164798	0.041905	-0.389589	-0.134953	0.030576	-0.382599	-0.142343	0.778972	-0.750115	-0.115471	0.723009	-0.758990	-0.056026	0.743488	-0.744643	-0.073943	0.800294	-0.734308	-0.170922	0.350957	-0.762115	-0.195110	0.318619	-0.760209	-0.142435	0.288440	-0.743423	-0.123956	0.328450	-0.748163	-0.371840	0.064459	-0.685698	-0.197223	0.025422	-0.773471	-0.142182	0.038000	-0.687444	-0.113365	0.028554	-0.694065	
254	1.2700	-0.256396	1.544354	-0.531458	-0.195049	1.519732	-0.760522	-0.193976	1.521906	-0.324542	-0.104716	1.478132	-0.535381	-0.136215	1.025826	-0.419247	-0.122512	1.019949	-0.636953	-0.193461	1.077566	-0.372178	-0.185742	1.072939	-0.698902	-0.317474	1.064136	-0.481219	-0.318017	1.058539	-0.593567	-0.323968	1.071811	-0.533653	-0.195193	0.778687	-0.331923	-0.168809	0.728221	-0.313974	-0.111186	0.757788	-0.306574	-0.131062	0.813357	-0.325031	-0.235890	0.364103	-0.309917	-0.245873	0.324706	-0.324830	-0.186737	0.314075	-0.314900	-0.180933	0.352390	-0.304231	-0.386924	0.066454	-0.417840	-0.223063	0.026418	-0.308348	-0.164864	0.041903	-0.389610	-0.135018	0.030568	-0.382599	-0.143075	0.780385	-0.749994	-0.116581	0.724274	-0.758920	-0.056973	0.744489	-0.744961	-0.074574	0.801370	-0.734591	-0.172520	0.351269	-0.762020	-0.196507	0.318798	-0.760026	-0.143605	0.288930	-0.743384	-0.125375	0.329034	-0.748230	-0.371826	0.064454	-0.685438	-0.197252	0.025436	-0.773406	-0.142153	0.037999	-0.687431	-0.113332	0.028549	-0.694070	
255	1.2750	-0.256486	1.546721	-0.531264	-0.194925	1.522451	-0.760304	-0.194219	1.524314	-0.324281	-0.104708	1.480741	-0.535097	-0.135481	1.028149	-0.419278	-0.121940	1.022339	-0.636805	-0.192371	1.079891	-0.372146	-0.185136	1.075420	-0.698614	-0.316790	1.066492	-0.480835	-0.317428	1.060893	-0.593258	-0.323332	1.074106	-0.533337	-0.195922	0.780812	-0.332222	-0.169964	0.730132	-0.314338	-0.112130	0.759227	-0.306569	-0.131569	0.815027	-0.324973	-0.237982	0.364506	-0.310592	-0.247601	0.325090	-0.325428	-0.188405	0.314905	-0.315138	-0.182903	0.353249	-0.304433	-0.386989	0.066364	-0.417952	-0.223100	0.026425	-0.308372	-0.164909	0.041899	-0.389631	-0.135066	0.030562	-0.382607	-0.143875	0.782217	-0.749838	-0.117799	0.725934	-0.758791	-0.058015	0.745834	-0.745215	-0.075258	0.802799	-0.734819	-0.174509	0.351918	-0.761896	-0.198261	0.319284	-0.759812	-0.145085	0.289764	-0.743425	-0.127147	0.329990	-0.748357	-0.371776	0.064561	-0.685175	-0.197269	0.025451	-0.773330	-0.142108	0.038001	-0.687414	-0.113284	0.028545	-0.694062	
256	1.2800	-0.256610	1.549532	-0.531072	-0.194900	1.525666	-0.760062	-0.194501	1.527241	-0.324015	-0.104716	1.483907	-0.534838	-0.134672	1.030936	-0.419277	-0.121279	1.025233	-0.636621	-0.191182	1.082806	-0.372113	-0.184383	1.078507	-0.698308	-0.316009	1.069305	-0.480458	-0.316738	1.063709	-0.592946	-0.322606	1.076841	-0.533017	-0.196697	0.783387	-0.332527	-0.171187	0.732473	-0.314714	-0.113142	0.761094	-0.306636	-0.132111	0.817096	-0.324956	-0.240343	0.365266	-0.311338	-0.249545	0.325784	-0.326042	-0.190321	0.316099	-0.315366	-0.185075	0.354447	-0.304804	-0.386997	0.066444	-0.418025	-0.223115	0.026429	-0.308388	-0.164930	0.041891	-0.389651	-0.135098	0.030555	-0.382626	-0.144713	0.784470	-0.749646	-0.119084	0.728005	-0.758606	-0.059127	0.747536	-0.745366	-0.075969	0.804608	-0.734966	-0.176802	0.352939	-0.761749	-0.200303	0.320128	-0.759591	-0.146823	0.290972	-0.743541	-0.129213	0.331334	-0.748524	-0.371683	0.064785	-0.684953	-0.197270	0.025464	-0.773253	-0.142056	0.037998	-0.687393	-0.113229	0.028541	-0.694044	
257	1.2850	-0.256769	1.552755	-0.530884	-0.194959	1.529356	-0.759794	-0.194807	1.530671	-0.323750	-0.104734	1.487594	-0.534603	-0.133790	1.034181	-0.419231	-0.120534	1.028610	-0.636405	-0.189919	1.086310	-0.372098	-0.183501	1.082161	-0.697988	-0.315138	1.072544	-0.480102	-0.315948	1.066976	-0.592645	-0.321797	1.080008	-0.532691	-0.197496	0.786392	-0.332803	-0.172439	0.735232	-0.315066	-0.114171	0.763371	-0.306764	-0.132662	0.819555	-0.324995	-0.242901	0.366402	-0.312102	-0.251681	0.326812	-0.326646	-0.192445	0.317637	-0.315572	-0.187408	0.355978	-0.305315	-0.386958	0.066696	-0.418037	-0.223100	0.026431	-0.308405	-0.164933	0.041883	-0.389669	-0.135115	0.030548	-0.382654	-0.145564	0.787144	-0.749415	-0.120404	0.730493	-0.758366	-0.060270	0.749617	-0.745388	-0.076678	0.806805	-0.735003	-0.179318	0.354353	-0.761584	-0.202558	0.321362	-0.759380	-0.148769	0.292559	-0.743712	-0.131499	0.333076	-0.748709	-0.371571	0.065140	-0.684813	-0.197254	0.025473	-0.773179	-0.142011	0.037987	-0.687376	-0.113180	0.028538	-0.694018	
258	1.2900	-0.256960	1.556372	-0.530704	-0.195081	1.533490	-0.759499	-0.195115	1.534583	-0.323481	-0.104773	1.491761	-0.534389	-0.132838	1.037867	-0.419130	-0.119702	1.032444	-0.636165	-0.188701	1.090393	-0.372042	-0.182512	1.086340	-0.697648	-0.314186	1.076180	-0.479755	-0.315060	1.070665	-0.592353	-0.320908	1.083580	-0.532360	-0.198295	0.789817	-0.333045	-0.173697	0.738415	-0.315370	-0.115209	0.766059	-0.306976	-0.133195	0.822405	-0.325108	-0.245608	0.367885	-0.312822	-0.253965	0.328167	-0.327178	-0.194753	0.319487	-0.315785	-0.189951	0.357844	-0.305800	-0.386889	0.067113	-0.417978	-0.223064	0.026431	-0.308425	-0.164926	0.041873	-0.389688	-0.135130	0.030539	-0.382692	-0.146408	0.790231	-0.749150	-0.121730	0.733404	-0.758077	-0.061419	0.752074	-0.745270	-0.077372	0.809392	-0.734914	-0.181982	0.356144	-0.761408	-0.204960	0.322962	-0.759184	-0.150870	0.294515	-0.743905	-0.133943	0.335197	-0.748886	-0.371450	0.065629	-0.684778	-0.197225	0.025478	-0.773109	-0.141973	0.037971	-0.687358	-0.113149	0.028533	-0.693983	
259	1.2950	-0.257180	1.560353	-0.530534	-0.195242	1.538039	-0.759178	-0.195409	1.538951	-0.323223	-0.104831	1.496369	-0.534190	-0.131818	1.041971	-0.418974	-0.118785	1.036711	-0.635899	-0.187357	1.094916	-0.372064	-0.181431	1.090986	-0.697280	-0.313156	1.080186	-0.479421	-0.314081	1.074750	-0.592064	-0.319932	1.087513	-0.532040	-0.199089	0.793630	-0.333249	-0.174956	0.741995	-0.315629	-0.116222	0.769123	-0.307240	-0.133704	0.825610	-0.325288	-0.248451	0.369669	-0.313482	-0.256421	0.329829	-0.327712	-0.197236	0.321626	-0.316033	-0.192730	0.360045	-0.306324	-0.386806	0.067696	-0.417862	-0.223026	0.026423	-0.308449	-0.164918	0.041860	-0.389708	-0.135150	0.030530	-0.382737	-0.147229	0.793719	-0.748853	-0.123051	0.736729	-0.757743	-0.062568	0.754903	-0.745011	-0.078049	0.812344	-0.734690	-0.184744	0.358271	-0.761226	-0.207462	0.324900	-0.759014	-0.153087	0.296812	-0.744093	-0.136487	0.337656	-0.749013	-0.371329	0.066264	-0.684865	-0.197184	0.025481	-0.773042	-0.141954	0.037945	-0.687344	-0.113142	0.028530	-0.693944	
